<svg width="150" height="40" viewBox="0 0 150 40" fill="none" xmlns="http://www.w3.org/2000/svg">
<path d="M0 39.4677V0.53232H9.47399V31.8251H25.7807V39.4677H0Z" fill="white"/>
<path d="M66.1552 20C66.1552 24.2839 65.3258 27.9151 63.6671 30.8935C62.0084 33.872 59.7627 36.1343 56.93 37.6806C54.1102 39.2269 50.9458 40 47.4369 40C43.9153 40 40.7445 39.2205 37.9247 37.6616C35.1048 36.1027 32.8655 33.8403 31.2067 30.8745C29.5607 27.8961 28.7378 24.2712 28.7378 20C28.7378 15.7161 29.5607 12.0849 31.2067 9.10646C32.8655 6.12801 35.1048 3.86565 37.9247 2.31939C40.7445 0.773131 43.9153 0 47.4369 0C50.9458 0 54.1102 0.773131 56.93 2.31939C59.7627 3.86565 62.0084 6.12801 63.6671 9.10646C65.3258 12.0849 66.1552 15.7161 66.1552 20ZM56.4707 20C56.4707 17.4651 56.107 15.3232 55.3798 13.5741C54.6652 11.8251 53.6317 10.5006 52.2792 9.60076C50.9394 8.70089 49.3253 8.25095 47.4369 8.25095C45.5613 8.25095 43.9472 8.70089 42.5947 9.60076C41.2421 10.5006 40.2022 11.8251 39.4749 13.5741C38.7604 15.3232 38.4031 17.4651 38.4031 20C38.4031 22.5349 38.7604 24.6768 39.4749 26.4259C40.2022 28.1749 41.2421 29.4994 42.5947 30.3992C43.9472 31.2991 45.5613 31.749 47.4369 31.749C49.3253 31.749 50.9394 31.2991 52.2792 30.3992C53.6317 29.4994 54.6652 28.1749 55.3798 26.4259C56.107 24.6768 56.4707 22.5349 56.4707 20Z" fill="white"/>
<path d="M97.4098 13.251C97.1929 12.4525 96.8739 11.749 96.4528 11.1407C96.0318 10.5196 95.515 9.99366 94.9025 9.56274C94.2901 9.13181 93.5883 8.80862 92.7972 8.59316C92.0061 8.36502 91.1385 8.25095 90.1943 8.25095C88.2931 8.25095 86.6471 8.70722 85.2563 9.61977C83.8783 10.5323 82.8128 11.8631 82.06 13.6122C81.3072 15.3485 80.9308 17.4588 80.9308 19.943C80.9308 22.4398 81.2945 24.5691 82.0218 26.3308C82.749 28.0925 83.8017 29.436 85.1797 30.3612C86.5578 31.2864 88.2293 31.749 90.1943 31.749C91.9296 31.749 93.3969 31.4702 94.5963 30.9125C95.8085 30.3422 96.7272 29.5374 97.3524 28.4981C97.9776 27.4588 98.2902 26.2357 98.2902 24.8289L100.051 25.038H90.5196V18.1749H107.42V23.327C107.42 26.8124 106.673 29.7972 105.18 32.2814C103.7 34.7655 101.659 36.673 99.0558 38.0038C96.4656 39.3346 93.4862 40 90.1177 40C86.3791 40 83.0936 39.1952 80.2609 37.5855C77.4283 35.9759 75.2209 33.6819 73.6387 30.7034C72.0565 27.7123 71.2654 24.1635 71.2654 20.057C71.2654 16.8631 71.7439 14.0304 72.7009 11.5589C73.6578 9.07478 74.9912 6.97085 76.701 5.24715C78.4236 3.52345 80.414 2.218 82.6725 1.3308C84.9437 0.443599 87.3872 0 90.0029 0C92.2741 0 94.3858 0.323194 96.338 0.969583C98.303 1.61597 100.038 2.52852 101.544 3.70723C103.062 4.88593 104.294 6.28644 105.238 7.90875C106.182 9.53105 106.769 11.3118 106.999 13.251H97.4098Z" fill="white"/>
<path d="M150 20C150 24.2839 149.171 27.9151 147.512 30.8935C145.853 33.872 143.607 36.1343 140.775 37.6806C137.955 39.2269 134.791 40 131.282 40C127.76 40 124.589 39.2205 121.769 37.6616C118.95 36.1027 116.71 33.8403 115.052 30.8745C113.406 27.8961 112.583 24.2712 112.583 20C112.583 15.7161 113.406 12.0849 115.052 9.10646C116.71 6.12801 118.95 3.86565 121.769 2.31939C124.589 0.773131 127.76 0 131.282 0C134.791 0 137.955 0.773131 140.775 2.31939C143.607 3.86565 145.853 6.12801 147.512 9.10646C149.171 12.0849 150 15.7161 150 20ZM140.315 20C140.315 17.4651 139.952 15.3232 139.225 13.5741C138.51 11.8251 137.476 10.5006 136.124 9.60076C134.784 8.70089 133.17 8.25095 131.282 8.25095C129.406 8.25095 127.792 8.70089 126.439 9.60076C125.087 10.5006 124.047 11.8251 123.32 13.5741C122.605 15.3232 122.248 17.4651 122.248 20C122.248 22.5349 122.605 24.6768 123.32 26.4259C124.047 28.1749 125.087 29.4994 126.439 30.3992C127.792 31.2991 129.406 31.749 131.282 31.749C133.17 31.749 134.784 31.2991 136.124 30.3992C137.476 29.4994 138.51 28.1749 139.225 26.4259C139.952 24.6768 140.315 22.5349 140.315 20Z" fill="white"/>
</svg>
